<?xml version="1.0" encoding="utf-8"?>
<!-- Generator: Adobe Illustrator 16.0.0, SVG Export Plug-In . SVG Version: 6.00 Build 0)  -->
<!DOCTYPE svg PUBLIC "-//W3C//DTD SVG 1.1//EN" "http://www.w3.org/Graphics/SVG/1.1/DTD/svg11.dtd">
<svg version="1.1" id="Layer_1" xmlns="http://www.w3.org/2000/svg" xmlns:xlink="http://www.w3.org/1999/xlink" x="0px" y="0px"
	 width="180.696px" height="249px" viewBox="0 0 180.696 249" enable-background="new 0 0 180.696 249" xml:space="preserve">
<path fill="#F15A24" d="M119.347,3.418v78.287c-0.26,29.971-21.754,40.977-42.367,40.502c-26.896-0.619-33.295-18.134-33.295-18.134
	s27.426,0,35.82,0c8.396,0,12.584-0.348,12.584-7.69c0-7.339,0-21.669,0-21.669H37.437V54.139h53.897V24.783H37.437V3.41H2.267
	c0,0-1.752,71.304,4.538,98.565c6.292,27.263,34.595,51.676,65.587,51.676c0,0,33.328,2.485,46.955-17.422V156.5
	c-2.097,37.227-30.754,37.051-56.143,35.364c-12.028-0.799-40.675-10.195-51.028-15.037l-2.413,32.611
	c3.605,1.595,7.291,3.112,11.002,4.551c4.405-5.602,11.23-9.213,18.915-9.213c12.333,0,22.477,9.269,23.891,21.222
	c3.523,0.495,6.773,0.755,9.642,0.755c9.795,0,19.604-0.703,28.847-2.409c2.113-11.138,11.892-19.567,23.646-19.567
	c4.544,0,8.777,1.278,12.407,3.472c9.72-8.873,15.796-21.565,15.796-39.511l0.185-133.036l26.603-0.004V3.418H119.347z"/>
<path fill="#F15A24" d="M57.506,229.082c0,9.82-7.956,17.794-17.794,17.794c-9.832,0-17.788-7.962-17.788-17.794
	c0-9.819,7.962-17.79,17.788-17.79C49.544,211.292,57.506,219.263,57.506,229.082z"/>
<path fill="#F15A24" d="M144.399,229.082c0,9.82-7.956,17.794-17.794,17.794c-9.832,0-17.788-7.962-17.788-17.794
	c0-9.819,7.962-17.785,17.788-17.785C136.437,211.297,144.399,219.263,144.399,229.082z"/>
</svg>
